<svg xmlns="http://www.w3.org/2000/svg" viewBox="0 0 1224.1 490.61"><defs><style>.cls-1{fill:#fcbfde;}</style></defs><g id="Layer_2" data-name="Layer 2"><g id="Lag_1" data-name="Lag 1"><path class="cls-1" d="M1043.69,190.56c-10.2-1.07-21.82-.51-32.55-2.11a58.16,58.16,0,0,0,8.08-5.94c10.56-9.39,16.13-22.55,20.46-35.71,6.12-18.62,12-33.11,27.87-45.76,9-7.2,5.61-23-3.62-28.07-7.15-4-14-5.49-21.89-4.22.86-9.71-7.41-20.09-18-20.3a83.57,83.57,0,0,0-18.58,1.5,85.56,85.56,0,0,0-2.4-15.63c-5.42-21.5-20.35-37.21-43.71-30.44-15.64,4.54-27.23,16-34.8,29.78-5-8.63-10.58-17-15.29-25-8.09-13.9-27.82-9.92-32.66,4.27-8.06,23.59-15.95,48.16-14,73.43a92.78,92.78,0,0,0,7.2,30.09,41.12,41.12,0,0,0,2.75,5l-.45-.1h0c-2.67-1-9.87-3.34-18-6.11-1.2-.59-2.39-1.2-3.57-1.85A209.39,209.39,0,0,0,816.42,78c-14.59-11.92-36.11,1.58-29.13,19.23a22,22,0,0,0-.92,4.25c-1.69,15,6.1,24.19,16.81,30.68q2.13,1.81,4.47,3.66a267,267,0,0,1,27.87,26,34,34,0,0,0-2.81,2.43c-18.13,17.61-14.22,48.15-3.69,68.64,11.66,22.68,35.2,36.25,60.79,29.09,25.11-7,47.57-29.87,61.59-51.59,5.66,6.26,11.37,12.49,18.66,16.94,8.11,4.94,17.3,7.23,26.78,8.39a107.72,107.72,0,0,0,19.52,10.69c14.88,5.92,31.82,4.82,47.57,4.44,12-.29,26-1.71,29.89-15.57C1101.92,206.6,1064.67,192.77,1043.69,190.56Zm-161.47-27.3L882,163l.33.12Z"/><path d="M1081.29,219.25c-4.09-2.69-8.49-5.17-10.65-10.08a7.6,7.6,0,0,0-3.45-3.89,99.5,99.5,0,0,0-15.63-5.29c-4.72-1.05-9.74-.62-14.55-1.4-8.69-1.41-17.34-3.1-26-5-5.8-1.24-11.52-2.91-17.25-4.46a17.39,17.39,0,0,1-2.93-1.5c1.26-.53,2-.88,2.76-1.17a70.17,70.17,0,0,0,27.89-18.92c5.23-5.82,10.09-12,14.85-18.19,1.42-1.86,1.91-4.43,2.83-6.67s1.37-4.58,2.71-6.38a24.41,24.41,0,0,0,4.36-10.42c.93-5.06,1.5-10.18,2.15-15.28.58-4.55,1.8-8.92,4.85-12.37,4.11-4.62,7.49-9.59,9.26-15.6-5.27-4.29-11.67-5.32-18.22-5.7-6.86-.4-13,1.37-18.07,6.8,3.11-12.51,1.92-15.41,9.77-27.05a1.92,1.92,0,0,0,.19-1.5,14.9,14.9,0,0,0-1.23-2.3c-3.2-.94-5,2-7.16,3.41a19,19,0,0,1-17.26,2.45c-4.63-1.46-9-3.59-13.54-5.45a2.27,2.27,0,0,1-1.07-.88c-2.82-5.21-5.93-10.3-8.28-15.73A24.73,24.73,0,0,0,978.43,26c-1.2-.83-2.35-2-3.7-2.32-5.79-1.38-11.45-3.46-17.67-2.4-3,.51-5.61,1.27-7.86,3.41a91,91,0,0,1-8.43,7.39,30.27,30.27,0,0,0-10.48,13.15A19.5,19.5,0,0,1,928.71,48c-.41-1.17-1-2.95-1.76-5.11-1.83-5.38-1.76-5.42-2.23-6.25-1-1.73-1.46-4.54-5.27-6.48a5.34,5.34,0,0,1-1.49-1.6c-2.42-3.16-4.74-6.41-7.27-9.48a27.29,27.29,0,0,0-3.82-3.25l-.39.53c3.7,5.08,7.19,10.32,11.14,15.2C922,37,923.26,43.37,924.2,49.93c.42,2.91.35,5.77-1.39,8.45a11.19,11.19,0,0,0-1.29,4.41c-.58,3.68-.79,7.43-1.55,11.06a28,28,0,0,0,.69,13.77,3.57,3.57,0,0,1-.38,2.6q-3.06,4.73-6.38,9.28a41.84,41.84,0,0,0-8,26.68c.08,2.46.4,5.65,1.93,7.14,2,2,2,3.69,1.86,5.92a3.33,3.33,0,0,0,.27,1.66c1.74,3.48,3.53,6.94,5.33,10.39.49.92,1.09,1.79,1.92,3.15-.84-.41-1.15-.53-1.42-.7-8.55-5.51-17.45-10.58-24.87-17.63-3.88-3.7-7.84-7.6-10.59-12.12-7.43-12.21-9.23-25.67-7.05-39.7.3-1.94,1-3.84,1.07-5.77.08-5.92,2.11-11.94-.65-17.77.82-4.55,1.25-9.22,2.59-13.61,1-3.2,3.22-6,4.75-9,2.82-5.6,5.3-11.38,8.37-16.83a23.14,23.14,0,0,0,2.52-7.48,18.83,18.83,0,0,1,2.66-6.7c1.6-2.46,3.27-2,4.74.53a12.5,12.5,0,0,0,6.23,5.1c.05-.62.18-.93.08-1.07-2.18-2.84-4.27-5.78-6.68-8.42a4,4,0,0,0-3.45-.59,11.64,11.64,0,0,0-7.58,10.81A10.44,10.44,0,0,1,885.78,20a57.07,57.07,0,0,0-4.3,7.1c-2.17,4.29-4,8.75-6.2,13a42,42,0,0,0-4.3,23.2c.16,1.93,1,3.85.95,5.75A80.56,80.56,0,0,1,870.65,82c-2.29,10.92-.87,21.48,2.61,31.83,1.64,4.89,4,9.54,6.26,14.73-11.74-5.2-24.15-8.73-34.6-16.7a8.93,8.93,0,0,0,1.93,2.89c3.39,3.2,6.85,6.53,11.48,7.62A29.07,29.07,0,0,1,866,125a15,15,0,0,0,2,1.13c5,1.88,10,3.7,15,5.58.36.13.62.51.91.8,4.7,4.86,9.39,9.69,15.18,13.38,5.63,3.58,11,7.54,16.52,11.31,1.61,1.11,3.26,2.15,4.89,3.22a10.39,10.39,0,0,1-3.79.1,34.66,34.66,0,0,0-6.32-.41,111.53,111.53,0,0,0-11.79,1.83c-3,.61-5.85,2.19-8.83,2.39-7.28.51-14.54,2.52-21.95-.36-3.42-1.34-7.52-1-11.33-1.31-4.55-.38-8.73-1.65-12-4.67.15-1.08.27-2.19-.22-2.83A15.9,15.9,0,0,1,840.7,145a10.78,10.78,0,0,0-2.55-7c-2.18-2.73-4.22-5.58-6.19-8.47-4.1-6-8.11-12-12.17-18-2-3-4.61-5.64-5.87-8.87-1.86-4.75-3.63-9.4-7.25-13.14a31.36,31.36,0,0,1-2.59-3.5,11.05,11.05,0,0,1,1.67.51c3.57,1.43,5,4.39,7,7a18.78,18.78,0,0,0,7.28,5.95c3.72,1.65,7.35,3.5,11,5.35,1.89,1,3.63,2.23,5.54,3.13a46.12,46.12,0,0,0,5.28,1.78c-3.79-6.27-9.06-9.62-15-12a25,25,0,0,1-10.16-7.32,33.24,33.24,0,0,0-12.88-9.12c-3.62-1.53-6.88-.31-7.72,2.83a6.21,6.21,0,0,1,.72,3.06c-.41,3.89-1.22,7.74-1.43,11.63-.46,8.24,3,15.44,7.77,21.61,3.4,4.45,6.11,9.66,11,13,1.4,1,1.81,3.29,2.91,4.81a87.72,87.72,0,0,0,5.6,7q5.09,5.73,10.41,11.24a12.78,12.78,0,0,0,3.15,2.14c1.13.61,2.36,1,3.54,1.53,2.81,1.25,5.5,3,8.43,3.64,3.32.74,6.87.42,10.3.74a48.15,48.15,0,0,1,5.54,1.2,15.28,15.28,0,0,1-3.9,6c-4.56,4.24-9.42,3-14.67,6.39-2.21,1.43-5,4-7.19,9.24-1.09,2.77-2.17,5.13-3,7.58-1.11,3.48-2.12,7,.82,10.24a3.26,3.26,0,0,1,.4,1.87c.16,4.46,2.07,8.31,4,12.22,1.13,2.3,2.37,4.78,2.57,7.25.5,6.09,3.47,11,6.65,15.84,2.67,4,6.41,6.79,11.62,7.24a10.1,10.1,0,0,1,5.23,2.27c4.41,3.72,9.17,5.08,14.79,3.51a15.61,15.61,0,0,1,4.33-.16c3,.07,6.05.62,9,.24,6.87-.89,13-4.05,19.07-7.22,2.56-1.34,5.6-2.62,7.22-4.81,5.65-7.65,14.31-11.89,20.54-19.06q.75,4,1.49,8.07a43.19,43.19,0,0,0,.31,10.58,59.3,59.3,0,0,1,.46,6.93c.07,1.66.21,3.21-1.47,4.5-1.16.87-1.17,2.31.9,2.55a48.23,48.23,0,0,1-10.56,13.23,89.5,89.5,0,0,1-7.15,6c1.72.08,3.44.17,5.16.28l4.34-2.76a3.29,3.29,0,0,0-.7,3l3,.21c.67-.49,1.36-1,2.07-1.42l-.3-.08a18.69,18.69,0,0,1,1.42-1.94c1.51-1.6,3.43-2.92,4.51-4.75,1.67-2.81,4.13-4.44,6.84-5.88,4.23-2.24,8.66-4.25,9.43-9.84.06-.41.79-.73,1.2-1.1a98,98,0,0,0,8-7.5c.82-.94.87-3.21.33-4.46-.36-.83-2.59-1.53-3.67-1.22a98.93,98.93,0,0,0-9.27,3.64l-3.37,1.4c0-1.95,0-3.32.09-4.69.2-4,.84-8,.59-11.91-.41-6.57-1.35-13.11-2.18-19.65-.09-.69-1-1.28-1.89-2.43.24-1.11.65-3,1.07-4.88a34.87,34.87,0,0,0,3.34,5,33.85,33.85,0,0,0,3.86,4.14,72.9,72.9,0,0,0,18.75,11.84c9.78,4.45,19,10.15,28.48,15.23,5.61,3,11.08,6.36,17.53,7.35,6.2,1,12.39,2.08,18.62,2.77a54.85,54.85,0,0,0,10.72,0c9.25-.79,17.57-4.85,26.19-7.83,2.69-.93,4.91-2.57,5.75-5.49C1087,228.29,1087.05,223.05,1081.29,219.25ZM834.18,148.6c-8.19-6.82-14.85-14.93-20.93-23.6-3-4.24-6-8.42-9-12.66-2.59-3.69-3.31-7.87-3.23-12.31.06-3.14-.22-6.29-.27-9.43a24.56,24.56,0,0,1,.4-3.25,58.61,58.61,0,0,1,10,13.52c1.81,3.57,4.41,6.73,6.37,10.24a113,113,0,0,1,6,12A73.58,73.58,0,0,0,833.64,141a6.38,6.38,0,0,1,1.09,2.18c1.07,3.61,2.07,7.26,3.13,11C836.62,152.27,835.8,150,834.18,148.6Zm192.31-63.38a28.11,28.11,0,0,1,22.25-5.09,77.4,77.4,0,0,1,8.2,2.19c1.77.54,2,1.72,1,3.19-2.35,3.23-4.57,6.58-7.13,9.63a23.22,23.22,0,0,0-5.43,11.06c-1,5.71-1.81,11.44-2.6,17.18a29.71,29.71,0,0,1-4,11.45c-2,3.42-4.55,6.82-5.53,10.58-1.29,5-4.83,8-7.66,11.74-1.53,2-2.79,4.21-4.32,6.22a70.46,70.46,0,0,1-17,15.71c-3.79,2.56-8.36,4-12.57,5.88l-.39-.47c2.88-2.4,5.83-4.72,8.61-7.24a26.17,26.17,0,0,0,4.17-4.75c3-4.48,6-9,8.53-13.67,1.65-3,2.57-6.48,3.72-9.77,1-2.83,1.68-5.78,2.82-8.54a35.86,35.86,0,0,0,2.88-11.18c.34-4.52,1.91-8.93,2.44-13.45.59-5,1.7-10,.94-15.26-.66-4.56.16-9.34.39-14A2.13,2.13,0,0,1,1026.49,85.22Zm-30-28a33.15,33.15,0,0,0,7.07,3.1,23.23,23.23,0,0,0,8.4,2.4c6.44.54,12.22-1.87,12.48-1.13,0,.14-.1.44-1.23,1.15-2.54,2.55-5.1,5.07-7.62,7.64a35,35,0,0,0-4.28,4.69,11.92,11.92,0,0,0-2.09,5.1,41.53,41.53,0,0,0,2.33,18.78c1.86,5.06,1.15,10.34.26,15.47-1.12,6.5-2.35,13-4,19.37-.91,3.4-2.93,6.51-4.38,9.78-2.27,5.13-4.48,10.29-6.74,15.43-.75,1.7-1.61,3.35-2.36,5.05-.37.83-.59,1.73-.88,2.59l.7.37a30,30,0,0,0,2.32-3.44c3.76-7.51,7.2-15.17,11.22-22.53,3.75-6.89,5.13-14.39,6.53-21.9.78-4.23.74-8.62,1.41-12.88.76-4.89-1.57-9.27-1.9-13.95a75.65,75.65,0,0,1-.35-10c.27-4.28,2.94-7.24,6.28-9.71a20.49,20.49,0,0,0,7.23-9.29c.93-2.42,3.41-4.24,5.19-6.33l.76.6c-.68,1.08-1.28,2.21-2,3.21-4.85,6.24-5.45,13.86-6.91,21.19-1,4.87-1.9,9.76-2.47,14.69-.32,2.67.16,5.43.28,8.15a28,28,0,0,1,.16,5.08c-2,14.15-4.66,28.17-9.2,41.75-1.55,4.64-3.2,9.26-6.7,12.91a5.1,5.1,0,0,0-1,1.65c-2.94,7.58-9.39,11.94-15.43,16.61-1.54,1.19-3.6,1.69-5.43,2.51-.19-.24-.38-.47-.58-.7,2-2.53,3.74-5.49,6.21-7.48s5.6-2.89,8.53-4.32c-4.24-5.39-12.39-3.6-16.64-1a9.39,9.39,0,0,0-2.77,2.39c-1.53,2.16-3.17,1.52-4.41.06a104.45,104.45,0,0,1-7.34-9.69c-1.86-2.83-4.52-4.35-7.4-5.73-1.43-.68-2.83-1.41-3.78-1.88,2.31-2.57,4.5-4.9,6.59-7.33,3.06-3.56,6.24-7.06,9-10.85a26.82,26.82,0,0,0,3.56-7.36c1.46-4.36,2.06-8.78.32-13.37-1-2.55-1.12-5.42-1.66-8.14s-1.11-5.4-1.67-8.07c4-3.2,4.87-8,6.48-12.63,1.77-5.06.92-10.16,1-15.25a15.5,15.5,0,0,1,3.24-9.75c2.38-2.86,5.08-5.44,7.71-8.08a2,2,0,0,1,1.65-.32A20.06,20.06,0,0,1,996.49,57.2ZM977.5,190c-1.84,2.22-3.8,3.9-6.08,4.24,1.49-3.59,3.1-7.34,4.6-11.13,2.35-6,5.92-10.51,12.85-11.06a11.92,11.92,0,0,1,4.61.83C985.27,176,982.44,184,977.5,190Zm-33.9-34-3.08-.26a39.78,39.78,0,0,1,.92-5.47c2.87-9,5.78-18,6.41-27.55a64.56,64.56,0,0,0-2.46-23.31,19.85,19.85,0,0,1-.61-5.29,44.44,44.44,0,0,1,.51-8.24c2.44,4.65,4.93,9.28,7.3,14a38.9,38.9,0,0,1,2,31.33,61.51,61.51,0,0,1-8.79,16.59,16,16,0,0,0-2.34,4.81C943.13,153.53,943.52,154.77,943.6,156Zm4.95-5.88c4.62-6.39,8.09-13.26,9.44-21.1a49.47,49.47,0,0,0-.62-19.43,72.16,72.16,0,0,0-9.07-21.82c-3.13-5.13-3.26-10.81-4.18-16.38a3.9,3.9,0,0,1,.3-1.37c3,4.07,5.87,8,8.93,11.83a21,21,0,0,0,4.11,3.4c4.55,3.3,6.82,8.18,9.24,13,3.81,7.58,5.55,15.85,7.26,24,1.06,5.07-.86,10-4.05,14.18-1.92,2.5-4.29,4.66-6.39,7-3.4,3.82-6.72,7.71-10.13,11.52a2.78,2.78,0,0,1-1.76.89c-1.7.1-3.4,0-5.67-.05C946.9,153.66,947.41,151.65,948.55,150.07ZM924.26,67.74c.35-3.95,1.09-7.73,3.77-10.87a7.68,7.68,0,0,0,1.34-2.32,40,40,0,0,1,11.75-17.08c3.9-3.33,7.75-6.71,11.69-10a5.14,5.14,0,0,1,2.41-1c6.28-1,12.62-.85,18.5,1.43a15.54,15.54,0,0,1,8.47,7.21c2.34,4.53,5,8.88,7.55,13.31.76,1.32,1.55,2.63,2.46,4.16C982,56.09,973.14,65.28,974.91,78.21c.85,6.24-1,11.93-2.56,17.73a20.1,20.1,0,0,1-1.19,2.78c-2.47-3.93-4.85-8-7.56-11.91A23.3,23.3,0,0,0,959,82.47c-6.07-5-10.7-10.89-12.67-18.63a15.54,15.54,0,0,1-.17-1.94c-.08-.61-.2-1.21-.33-1.94-3.71,1.21-1.62,4.57-3.12,6.78-1.45-2.5-2.87-4.94-4.49-7.71-2.21,5.34-4.43,10-6.44,13.84-3.23,6.21-8.06,14.57-8.67,14.27-.18-.09,0-.86.23-1.51a14.86,14.86,0,0,1-.45-3.19C923.31,77.54,923.84,72.64,924.26,67.74Zm-7.45,79.82c-2.94-5.34-5.68-10.43-6.62-17.13a39.36,39.36,0,0,1,.71-12.55c2.2-11.62,9.59-20.44,16.42-29.61,4.1-5.5,8.64-10.88,10.46-17.78.26-1,.56-2,.88-3.13,2.49,1.1,2.59,3.29,2.86,5.26,1.16,8.29,1.21,16.49-1.72,24.56a134.61,134.61,0,0,0-3.86,13.71c-1.17,4.78-3.7,8.8-6.61,12.63-2.28,3-4.45,6-5.09,9.85-.88,5.4-1.42,10.78.57,16.07.08.21.23.56.53,1.35,1.09,2.83,1.35,4,1.7,4,.14,0,.34-.23.54-1.31a24.77,24.77,0,0,1-.94-6.29c-.08-3.41,1.17-6.09,2.18-11.65a25.46,25.46,0,0,1,7-13.55,4.22,4.22,0,0,0,.92-1.44c1.77-4.86,3.56-9.72,5.24-14.62a39.54,39.54,0,0,0,1-4.74l.62,0c1,6.58,2.06,13.14,2.79,19.74.63,5.69-2,10.86-3.28,16.23-1.42,5.93-3.17,11.79-4.92,17.65a2.74,2.74,0,0,1-2.08,1.25c-4.54.24-9.09.32-13.67.45A82.24,82.24,0,0,1,916.81,147.56ZM889.74,251.38c-3.72.46-7.46.85-11.18,1.33-4.57.6-8.21-1.16-11.26-4.78a9.5,9.5,0,0,0,2.86.31,4.59,4.59,0,0,0,2-1.44c9.09-2.86,17.55.35,26.09,3.46C895.46,250.63,892.6,251,889.74,251.38Zm54.18-39.55c-1.13,7-4.33,13.46-10.57,17.83a105.72,105.72,0,0,0-10.41,7.71,50.77,50.77,0,0,1-5.94,4.51c-1.72,1.08-4,3.61-7.12,3.59-5.81,0-11.53,2.59-17.57-.88-8.25-4.73-17.2-4.65-26.18-1.06-2.86,1.14-6.2,1.19-9.34,1.43-.84.07-2-.84-2.62-1.59-4.19-4.72-7.25-10.09-8.26-16.37a33.8,33.8,0,0,0-3.18-10.68c-3.41-6.49-3-13.54-1.71-20.52a26.14,26.14,0,0,1,1.79-6.26c3.08-6.53,9.1-9.29,15.49-11.31a10.51,10.51,0,0,0,5.37-3.95c1.73-2.28,3.58-4.47,4.74-5.91,5.07.62,8.91,1.31,12.77,1.49a90.29,90.29,0,0,0,9.28-.49,27.43,27.43,0,0,0,10.63-2.91c5.45-2.62,11.3-5.19,18.07-3.43-1.48,4.32,1.58,6.5,4.31,9.06a113.76,113.76,0,0,1,9.24,9.77,38.81,38.81,0,0,0,14.41,11.08,5.76,5.76,0,0,1,.82.54C945.45,199.42,944.92,205.64,943.92,211.83Zm-8.19,61.37c5-4.59,7.85-10.6,10.9-16.41.75-1.43,1-3.1,2.8-3.27,2.8-.27,5.71-1.64,8.76.68Zm32.14-30.82.52.75c-2.62,2.38-4.95,5.27-7.95,7-2,1.09-4.9.41-7.92.55C956.76,245.37,962.48,244.2,967.87,242.38Zm-14.18-18.54c-.07,3.89-.87,3.32-.94,7.67-.11,6.34,1.55,9.5-.38,12.74a8.37,8.37,0,0,1-3.44,3.07c-1.34-11.4-4-22.53-2.55-34.54,1-3.3,1.85-4,2.49-4.06C951,208.64,953.83,216.37,953.69,223.84Zm.71-32.45a97.51,97.51,0,0,1-14.12-8.61c-4.09-3.16-7.49-7.23-11.18-10.91a37.21,37.21,0,0,1-4.58-4.74,7.55,7.55,0,0,1-1.54-4.79c.11-.89,2.24-2,3.58-2.16a96.53,96.53,0,0,1,10.22-.68c4.38-.14,8.8-.43,13.16-.15a20.28,20.28,0,0,1,13.24,6.5c1.92,2,3.15,4.55,4.93,6.66,1.9,2.27,4.07,4.31,6.33,6.67-.78,2.53-1.36,5.74-2.77,8.52a28.57,28.57,0,0,1-5.25,6.61c-.53.54-2.07.43-3,.16C960.36,193.58,957.18,192.85,954.4,191.39Zm96,52.63c-13.17-.67-26.39-2.23-38.73-9.35,4.46-.7,8.3-1.18,12.1-1.92,6-1.17,12.07-2.51,18.1-3.79a42.33,42.33,0,0,1,20.56.27c1.33.37,2.75.39,4.07.76,3.5,1,7,2,10.43,3.15,1.68.54,3.31,1.23,5.48,2.05C1072.1,240.07,1061.72,244.61,1050.37,244Zm31.43-12.56c-3.66-2.45-7.8-3.16-12-3.67-7.28-.88-14.45-2.86-21.88-1.7-5.64.88-11.28,1.78-16.92,2.65-6.85,1-13.7,2-20.54,3.14a10.23,10.23,0,0,1-6.77-1.33c-7.88-4.22-15.75-8.49-23.87-12.22-4.54-2.09-9-4-12.86-7.33-4.34-3.84-7.7-8.14-8.78-13.37,4.27-.33,8.54-.54,12.78-1,3.11-.36,5.28-2.43,7.1-4.82s6.82-3.31,9.38-2.06c4.09,2,8.13,4.22,12.43,5.6,4.13,1.33,8.57,1.71,12.87,2.51s8.45,1.93,12.73,2.32c6.3.56,12.66.54,19,.88a30.57,30.57,0,0,1,6.24,1c3,.82,5.84,2.09,8.82,2.9,3.59,1,5.61,3.65,7.79,6.32a33,33,0,0,0,5,4.87c2.29,1.82,4.89,3.23,7.18,5a11.29,11.29,0,0,1,4.42,11.23A13.53,13.53,0,0,1,1081.8,231.46Z"/><path d="M8.69,475.49v-23.8l-1-19.63Q4.83,379.3,4.83,354.53q0-13.51-3.54-84.29-.64-15.45-1-19.79C.1,247.56,0,246,0,245.79v-2.25q0-2.25,3.22-2.9c1.28-.43,5-.64,11.26-.64H30.56a4.22,4.22,0,0,1,3.86,2.09,9.93,9.93,0,0,1,1.29,5.3q0,3.23-5.79,3.22l-7.4-.32H14.16c-1.72,0-2.79.32-3.22,1s-.65,2.36-.65,5.14q0,6.45,2.26,47t2.25,47.3a45.39,45.39,0,0,0,10.94-1.93,48.39,48.39,0,0,1,10.93-1.93,4.07,4.07,0,0,1,3.38,2.25,7.8,7.8,0,0,1,1.45,4.18c0,2.36-1.72,3.92-5.15,4.66a104.36,104.36,0,0,1-14.79,1.77c-4.51.65-6.76,1.93-6.76,3.87q0,14.47,3.22,54,2.89,36,2.89,54.37l-1,1.61a10.78,10.78,0,0,1,1,4.19q0,6.11-7.08,6.11Q8.69,483.86,8.69,475.49Z"/><path d="M132.87,487.08q-3.87-4.2-8.37-22.2t-8.36-40.54a303.3,303.3,0,0,0-7.4-36.35q-3.87-16.1-7.4-16.09h-1c-4.73,0-7.08,1.5-7.08,4.5q0,23.18,2.57,70.46,1.27,29,2.9,33.78l-2.58,5.47h-4.5l-2.58-2.57Q84,334.91,84,280.85a28.73,28.73,0,0,1,.48-5.79,9.71,9.71,0,0,1,2.09-4.18q1.29-2.25,4.51-2.25,16.4,0,26.38,8t10,23.17v23.48q0,6.12-4,16.41a156.83,156.83,0,0,1-8.85,19l-4.18,8q3.54,16.41,14,59T135.76,471a5.38,5.38,0,0,1,.81,1.61,24,24,0,0,0,2.09,3.86,18,18,0,0,1,2.25,7.72q0,4.5-3.54,4.5Zm-27-129.34A46.94,46.94,0,0,0,113.56,342q5.14-19.62,5.15-31.21a77.34,77.34,0,0,0-.8-12.22,61.65,61.65,0,0,0-2.74-10.3Q111.32,277,96.84,277c-1.08,0-1.93.92-2.58,2.74a16.87,16.87,0,0,0-1,5.63q0,21.56.64,38.93.32,17.37.32,38.92l.65.65Q101,363.86,105.84,357.74Z"/><path d="M229.06,460.05a485,485,0,0,1-17.37-57.91q-7.41-31.2-8-43.75l-1-1.29-4.83,10.3q-3.54,6.75-5.3,11.1a80.52,80.52,0,0,0-3.38,10.77,41.37,41.37,0,0,0-1.93,12.55,93.72,93.72,0,0,1-.65,11.58L186,425v41.18a71.38,71.38,0,0,0,1,9.33,58,58,0,0,1,1,9,3.31,3.31,0,0,1-1.61,2.74,6.1,6.1,0,0,1-3.54,1.12c-2.79,0-4.66-.43-5.63-1.28s-1.44-2.69-1.44-5.47V421.12q0-5.14,1.6-20.27t1.61-20.26q0-13.51,1.61-31.21,1.29-18,1.29-30.89V273.78a6.46,6.46,0,0,1,6.11-3.54,6,6,0,0,1,6.11,6.11q-2.58,5.79-2.57,15.44l-.64,33.78q-.66,15.45-.65,34.1,3.21-1,25.1-44.39,21.87-43.11,24.12-43.11,8.37,0,8.37,5.47a440.78,440.78,0,0,0-34.1,59.51l-.33,10.3c-.21,3-.32,6.43-.32,10.29q0,14.17,10.94,53.09t18.66,54.05c2.36,3.21,3.75,5,4.18,5.47a52,52,0,0,1,4.67,7.56,14.45,14.45,0,0,1,1.45,6.27,4.3,4.3,0,0,1-1.61,3.54A6.07,6.07,0,0,1,247.4,489Q239.68,489,229.06,460.05Z"/><path d="M277.8,482.09a7.92,7.92,0,0,1-2.1-5.31,8.53,8.53,0,0,1,2.58-5.95,7.79,7.79,0,0,1,5.79-2.74c1.71,0,3.43.92,5.15,2.74a8.23,8.23,0,0,1,2.57,5.63q0,8-9,8A6.37,6.37,0,0,1,277.8,482.09Z"/><path d="M475.65,488.52c-1-1.39-1.45-3.7-1.45-6.91V452.33q0-21.87-1.29-53.08-.33-5.79-.32-16.73-1-22.84-1-36l.32-18q.32-8,.32-18,0-8.68-.32-15.44-.33-4.83-.49-8a49.27,49.27,0,0,0-.48-5.15l-.64,2.25q-3.55,23.49-10.62,61.77t-11.58,61.45q-4.51,20.59-5.79,29.28a13.84,13.84,0,0,1-2.74,6.75A6,6,0,0,1,435,445.9a5.57,5.57,0,0,1-4.51-2.58,13.83,13.83,0,0,1-2.25-7.4q-2.25-15.44-16.4-86.22T396,276.35q-1,28.95-1,65,0,28.31.32,51.15t.32,51.15q0,4.83,1,15.12l.65,15.45c0,4.07-.76,6.86-2.25,8.36q-9.35,0-9.33-16.73V412.11l.32-32.49q.31-14.47.32-32.81,0-21.24.32-38l.65-38.28V242.25a3.83,3.83,0,0,1,1.44-2.9,4.58,4.58,0,0,1,3.06-1.28,3.55,3.55,0,0,1,3.54,2.57q2.89,9.65,14.47,56.94t17.38,73q2.89,15.13,9.33,53.41l2.25-12.55q1-5.79,2.9-16.08,3.85-25.09,4.82-28.32l14.8-78.82,2.89-16.73,3.54-18,1.61-9.65a8.44,8.44,0,0,1,1.93-5,4.74,4.74,0,0,1,3.54-1.77,3.71,3.71,0,0,1,2.9,1.61,7.07,7.07,0,0,1,1.28,4.5v31.85q0,24.13,2.9,73,2.25,45,2.25,72.39,0,8.68,1,26.7.63,23.18.64,32.17,0,7.08-1,9.33a4,4,0,0,1-3.54,1.93C478.49,490.61,476.61,489.91,475.65,488.52Z"/><path d="M590,485c-.85-.75-1.5-2.73-1.93-6q-2.9-23.47-3.54-29.27l-1.6-12.87a73.12,73.12,0,0,0-16.09-1.61l-11.58-.64a100.89,100.89,0,0,0-11.26-1,2,2,0,0,0-2.25,1.61c0,.64-.11,1-.32,1l-.65,6.44q-.33,5.79-3.54,23.16a57.92,57.92,0,0,1-3.86,13.51q-2.58,5.47-4.83,5.47a7,7,0,0,1-4.18-1.77c-1.5-1.17-2.25-2.41-2.25-3.7l.32-1,.32-1q5.79-22.83,9.66-45.36l3.86-19.95,3.86-24.45,3.54-21.23q1.6-8.69,5.79-28,4.5-21.87,5.47-29.92.31-1,1.28-11.9,1.29-12.22,2.26-18,1-8.36,1.93-9.65h2.25a6.94,6.94,0,0,0,2.25.32q3.87,0,5.79-1.93a6.15,6.15,0,0,1,4,1.45,4.28,4.28,0,0,1,1.77,3.38,319.83,319.83,0,0,0,2.25,35.39q1.29,10.29,1.93,17.05,3.54,41.5,18,155.71v1a5.33,5.33,0,0,1-2.57,4.83Q591.3,486.11,590,485Zm-8.68-56.78q-3.23-46.32-12.23-136.73l-17.37,85.9q-7.41,37-7.4,46.65,0,1.61,12.22,2.89a208.38,208.38,0,0,0,21.56,1.29Z"/><path d="M649.53,481.93q-7.08-3.54-10.46-13.68t-6-32.33q-3.86-32.49-3.86-50.51,0-10.94,1.29-25.09l1.93-20.27q1.6-24.14,3.7-36.52a48.83,48.83,0,0,1,9.33-21.87q7.23-9.5,22.35-11.1a29.73,29.73,0,0,1,5.15-.32q10,0,10,4.5a4.13,4.13,0,0,1-2.09,3.38,7.61,7.61,0,0,1-4.35,1.45l-3.22-.32-2.89-.33a15.15,15.15,0,0,0-9.81,3.54,26.35,26.35,0,0,0-7.24,10.3,119.6,119.6,0,0,0-8.69,31.53q-2.58,20.26-3.22,35.38l-.32,24.78a205.48,205.48,0,0,0,1,23.48c1.5,2.37,2.52,5.95,3,10.78s1,11.42,1.45,19.79a89.24,89.24,0,0,0,2.9,19.14,26.79,26.79,0,0,0,8,13q6.43,5.47,17.69,5.47,9.33,0,13.2-10.3a68.86,68.86,0,0,0,5.14-22.52q1-14.47,1-24.45V401.18Q691.34,398,683.31,398h-2.57a17.78,17.78,0,0,1-3.54.32q-7.73,0-7.73-3.86,0-5.46,7.73-5.47,5.46,0,9,.32l7.07.32a54.38,54.38,0,0,1,9.65,2.26c2.58.86,3.86,2,3.86,3.54a52.93,52.93,0,0,1-1.93,11.9,86,86,0,0,0-1.61,12.22q0,13.51.65,24.45.32,11.28.32,24.78-16.41,16.72-32.82,16.73Q656.61,485.47,649.53,481.93Z"/><path d="M820.84,482.57a23.11,23.11,0,0,1-2.09-5.79,14.05,14.05,0,0,0-1.29-4.5l.32-1q-2.56-15.12-10.93-37l-5.8-16.73q-.64-.63-6.11-16.4l-2.57-7.72Q763.41,304,756,296.62q-2.58,8.69-2.57,22.52,0,7.39.32,12.87l.32,12.54-.32,7.73c-.22,2.36-.32,4.93-.32,7.72a99.94,99.94,0,0,0,.64,12.22l.65,10.3h-1q0,53.73,2.25,59.19v29a15.14,15.14,0,0,1,1.29,6.75,6.47,6.47,0,0,1-1.77,4.51,5.69,5.69,0,0,1-4.34,1.93q-6.77,0-6.76-17.38l.65-10.29a82.36,82.36,0,0,0,.64-10.62q0-15.44-1-46.32t-1-46.33q0-9.33,1-28.63,1-19,1-28.31v-4.19q0-15.75,5.79-20.59l1,1,3.21-.65a6.88,6.88,0,0,1,2.9,1.93,4,4,0,0,1,1.28,2.9l.65,1.93a5.1,5.1,0,0,0,.32,1.61q5.14,22.85,23.16,64,18.35,43.43,22.85,57.59,3.21,11.26,5.14,19.95,6.12,27.35,14.48,42.14l.64-1q7.39-71.43,7.4-175.34l-.32-3.86a21.62,21.62,0,0,1-.32-4.18q0-6.76,4.5-6.76a6.07,6.07,0,0,1,5,2.89,10.78,10.78,0,0,1,2.09,6.44v21.55L843.84,306q0,30.57-3.54,100.37t-6.75,75.93l-5.47,1.29v.32l-.32-.32-3.22,1A3.94,3.94,0,0,1,820.84,482.57Z"/><path d="M886.31,370.93V359.67q0-89.75,23.16-89.75a15.5,15.5,0,0,1,4.5,1,88.35,88.35,0,0,0,20.27,4.5q6.12,1.29,12.23,12.55,6.75,11.58,10.13,30.56A221.14,221.14,0,0,1,960,357.42l-.64,1.61q0,10.62.32,19l.32,19.31q0,16.4-1.29,29.59a172.81,172.81,0,0,1-6.43,34.43,65.46,65.46,0,0,1-6.6,14.48,34.43,34.43,0,0,1-9.16,9.65A20.37,20.37,0,0,1,924,489.33Q886.3,489.33,886.31,370.93Zm55,91.37a145,145,0,0,0,7.4-36.67Q950,406.33,950,394.74q0-12.86-1.93-38-1.62-28-1.61-38l-1.29-2.58.64-1.61q0-14.14-7.88-24.45T918.8,279.89q-14.81,0-17.69,14.15c-.44,3.22-.86,7.84-1.29,13.84q0,23.81-1.93,32.49,0,4.83-1,15.12l-.64,15.12q0,7.08.32,12.55l.32,12.87a270,270,0,0,0,2.58,34.74,208.94,208.94,0,0,0,4.5,24.45,54.27,54.27,0,0,0,7.4,17.06q4.83,7.71,11.26,7.72Q935.21,480,941.32,462.3Z"/><path d="M1002.12,480q.64-1.94.65-10.62,0-29.6,1-87.83,1-57.92,1-83.64l.64-11.59,1-9.65a2,2,0,0,1,2.25-2.25,15.5,15.5,0,0,1,4.5,1l1,.33q0,7.08-.32,12.86v47.62q.33,15.44.32,35.07a47.52,47.52,0,0,0-.32,7.07l-.32,6.76q-.32,6.44-.32,13.19,0,7.41.32,13.51l.32,13.84-1,2.57.32-.32a1.91,1.91,0,0,1-.32,1.29v1.28a10,10,0,0,0,1,4.51l-1,30.88v1.93a33.15,33.15,0,0,0,.32,6.44,1.43,1.43,0,0,0,1.61,1.61l16.73.64q7.39,0,10.13.16c1.82.11,3,.16,3.38.16h1a4.47,4.47,0,0,1,3.21,1.77,5.42,5.42,0,0,1,1.61,3.7q0,3.86-5.15,4.18-5.46-.33-26.7-.32l.64.32a56.55,56.55,0,0,0-6.11.32,23.9,23.9,0,0,1-5.79.65Q1003.09,487.4,1002.12,480Z"/><path d="M1090.59,480a8.44,8.44,0,0,0-2.57.32h-2.58q-7.08,0-9-3.22c0-1.5.85-2.78,2.57-3.86l1.61-1.61H1090l1.29-1.28.64-2.9.32-3.86q0-19.62-1-35.07l-.65-11.9-.64-23.49q0-12.54,1-37.64l.65-37.32q0-24.43-1.61-37.32-2.9-1-9.65-1l-3.54.32a25,25,0,0,1-4.18.32q-6.12,0-6.12-5.47c0-.85,1-1.71,2.9-2.57a12.63,12.63,0,0,1,4.82-1.29,235.91,235.91,0,0,1,24.46,1.29,52,52,0,0,1,14.79,2.89c3.86,1.29,5.8,3.12,5.8,5.47a7.86,7.86,0,0,1-1,2.58l-7.4.64q-2.25-1.94-9.33-1.93l-1.61,1q1,2.89,1,17.05,0,21.22-.32,38.28l-.65,38.29q0,14.47,1.29,35.06,1,23.49,1,35.39v4.18a43.39,43.39,0,0,0-.32,5.8q0,7.39,1,9l-.32.65c0,2.14,2.35,3.21,7.07,3.21a29.6,29.6,0,0,0,4.83-.32h4.83q9.32,0,9.32,4.51a6,6,0,0,1-1.92,4.66,7.34,7.34,0,0,1-5.15,1.77,18.75,18.75,0,0,1-5.15-.64,45,45,0,0,0-5.47-.33,17,17,0,0,0-5.79,1.61q-3.85,1.94-5.79,1.93C1094.34,483.21,1091.45,482.14,1090.59,480Z"/><path d="M1215.42,485c-.86-.75-1.51-2.73-1.93-6q-2.9-23.47-3.54-29.27l-1.61-12.87a73.06,73.06,0,0,0-16.09-1.61l-11.58-.64a100.52,100.52,0,0,0-11.26-1,2,2,0,0,0-2.25,1.61c0,.64-.11,1-.32,1l-.65,6.44q-.32,5.79-3.53,23.16a58.42,58.42,0,0,1-3.86,13.51q-2.58,5.47-4.83,5.47a7,7,0,0,1-4.18-1.77c-1.5-1.17-2.25-2.41-2.25-3.7l.32-1,.32-1q5.79-22.83,9.65-45.36l3.86-19.95,3.86-24.45,3.54-21.23q1.61-8.69,5.79-28,4.5-21.87,5.47-29.92c.21-.64.65-4.61,1.29-11.9q1.27-12.22,2.25-18c.64-5.57,1.29-8.79,1.93-9.65h2.25a6.94,6.94,0,0,0,2.25.32q3.87,0,5.79-1.93a6.18,6.18,0,0,1,4,1.45,4.31,4.31,0,0,1,1.77,3.38,319.83,319.83,0,0,0,2.25,35.39q1.27,10.29,1.93,17.05,3.53,41.5,18,155.71v1a5.31,5.31,0,0,1-2.57,4.83Q1216.7,486.11,1215.42,485Zm-8.69-56.78q-3.21-46.32-12.22-136.73l-17.37,85.9q-7.41,37-7.41,46.65,0,1.61,12.23,2.89a208.23,208.23,0,0,0,21.56,1.29Z"/></g></g></svg>